<svg width="72" height="72" viewBox="0 0 72 72" fill="none" xmlns="http://www.w3.org/2000/svg">
<mask id="path-1-inside-1_1057_9917" fill="white">
<path fill-rule="evenodd" clip-rule="evenodd" d="M17.9393 12.083C17.8016 12.1404 17.5482 12.3389 17.376 12.5242L17.0631 12.8611V27.0019V41.1429L17.472 41.5524L17.881 41.9618L20.3197 42.0005L22.7584 42.0393V41.5308V41.0224H20.5303C18.9643 41.0224 18.2576 40.9777 18.1521 40.8721C18.0376 40.7575 18.0019 38.1389 18.0019 29.85V18.9782H35.5257H53.0496V29.85C53.0496 38.1389 53.0139 40.7575 52.8994 40.8721C52.7938 40.9777 52.0871 41.0224 50.5211 41.0224H48.2931V41.5308V42.0393L50.7318 42.0005L53.1705 41.9618L53.5794 41.5524L53.9883 41.1429V26.9943V12.8457L53.5792 12.4362L53.17 12.0268L35.6798 12.0027C26.0602 11.9895 18.077 12.0257 17.9393 12.083ZM52.8994 13.1165C53.0055 13.2227 53.0496 13.957 53.0496 15.6215V17.9762H35.5257H18.0019V15.6215C18.0019 13.957 18.046 13.2227 18.1521 13.1165C18.3704 12.898 52.6811 12.898 52.8994 13.1165ZM20.0046 15.4712V15.9722H27.2645H34.5244V15.4712V14.9702H27.2645H20.0046V15.4712ZM44.6682 15.1521C44.3356 15.553 44.824 16.1688 45.2577 15.8956C45.6911 15.6224 45.5367 14.9702 45.0387 14.9702C44.9179 14.9702 44.7511 15.052 44.6682 15.1521ZM47.6722 15.1521C47.3397 15.553 47.8281 16.1688 48.2618 15.8956C48.6951 15.6224 48.5408 14.9702 48.0427 14.9702C47.922 14.9702 47.7552 15.052 47.6722 15.1521ZM50.6763 15.1521C50.3438 15.553 50.8322 16.1688 51.2659 15.8956C51.6992 15.6224 51.5449 14.9702 51.0468 14.9702C50.926 14.9702 50.7593 15.052 50.6763 15.1521ZM31.5829 21.4695C30.5402 21.9511 30.1434 22.725 30.1434 24.2777C30.1434 25.5507 30.4438 26.2318 31.2587 26.8064L31.7915 27.1822L35.2544 27.221C39.1822 27.2652 39.5663 27.2096 40.2822 26.4933C40.8793 25.8959 41.0823 25.158 41.0072 23.8589C40.9576 23.0017 40.8945 22.7745 40.5842 22.3336C40.3837 22.0488 39.9714 21.6844 39.668 21.5242C39.128 21.2389 39.042 21.2328 35.6 21.2355C32.449 21.238 32.0315 21.2623 31.5829 21.4695ZM13.3224 22.1895C12.8936 22.3213 12.5136 22.5751 12.0498 23.0391C10.9186 24.1709 10.9924 23.0733 10.9924 38.7907V52.5455H11.4909H11.9895L12.0229 38.6022L12.0563 24.6587L12.3921 24.1511C12.8972 23.3873 13.481 23.0828 14.5752 23.0126L15.4985 22.9533V22.4687V21.9843L14.7162 21.993C14.286 21.9978 13.6587 22.0862 13.3224 22.1895ZM55.553 22.4687V22.9533L56.4881 23.0133C57.5806 23.0836 58.2172 23.4251 58.6981 24.1991L58.9951 24.6772L59.0286 38.6114L59.062 52.5455H59.5605H60.0591V38.7907C60.0591 23.0756 60.1324 24.1706 59.0033 23.0408C58.2474 22.2844 57.4743 21.9843 56.2812 21.9843H55.553V22.4687ZM39.5602 22.7068C39.9613 23.1084 39.9693 23.1382 39.9693 24.2388C39.9693 25.3394 39.9613 25.3692 39.5602 25.7707L39.1513 26.1802L35.7736 26.2172C32.0476 26.2581 31.7794 26.2146 31.3583 25.5013C31.0804 25.0305 31.0658 23.5026 31.3342 22.9833C31.7069 22.2618 31.8649 22.2358 35.6799 22.2681L39.1513 22.2974L39.5602 22.7068ZM13.9339 24.1078C13.7962 24.1648 13.5427 24.363 13.3706 24.5483L13.0577 24.8852V38.5251V52.165L13.4669 52.5745L13.876 52.9839H35.5257H57.1754L57.5846 52.5745L57.9938 52.165V38.5174V24.8698L57.5907 24.4666C57.236 24.1117 57.0897 24.057 56.3703 24.0112L55.553 23.9591V24.4748V24.9903H56.1538C56.4842 24.9903 56.8222 25.0579 56.9048 25.1406C57.1227 25.3587 57.1227 51.6762 56.9048 51.8942C56.6864 52.1128 14.3651 52.1128 14.1466 51.8942C13.9287 51.6762 13.9287 25.3587 14.1466 25.1406C14.2293 25.0579 14.5672 24.9903 14.8977 24.9903H15.4985V24.4893V23.9883L14.8413 23.9962C14.4799 24.0006 14.0715 24.0508 13.9339 24.1078ZM30.6574 29.069C30.4476 29.2457 30.2183 29.5979 30.1478 29.8518C30.0773 30.1057 30.0194 31.5675 30.019 33.1003L30.0182 35.8871H26.7576C23.1727 35.8871 22.9372 35.9292 22.5727 36.6345C22.4683 36.8367 22.3829 37.2149 22.3829 37.4753C22.3829 37.933 22.589 38.1549 28.6404 44.2137L34.8977 50.4789H35.5257H36.1537L42.4111 44.2137C48.4624 38.1549 48.6686 37.933 48.6686 37.4753C48.6686 37.2149 48.5831 36.8367 48.4787 36.6345C48.1142 35.9292 47.8788 35.8871 44.2939 35.8871H41.0332L41.0325 33.1003C41.0321 31.5675 40.9741 30.1057 40.9037 29.8518C40.8332 29.5979 40.6039 29.2457 40.3941 29.069L40.0127 28.7478H35.5257H31.0387L30.6574 29.069ZM39.9023 29.9921C39.9819 30.1409 40.0319 31.4639 40.0319 33.4212C40.0319 35.9245 40.0677 36.6378 40.1988 36.7466C40.3102 36.8392 41.5699 36.8963 43.9852 36.9185L47.6047 36.9518L47.6472 37.2531C47.6829 37.5055 46.7154 38.5296 41.7021 43.547C38.4089 46.8429 35.6295 49.5395 35.5257 49.5395C35.422 49.5395 32.6426 46.8429 29.3493 43.547C24.336 38.5296 23.3686 37.5055 23.4042 37.2531L23.4468 36.9518L27.0662 36.9185C29.4815 36.8963 30.7412 36.8392 30.8526 36.7466C30.9838 36.6378 31.0196 35.9245 31.0196 33.4212C31.0196 31.4639 31.0695 30.1409 31.1491 29.9921C31.2733 29.7599 31.4549 29.7498 35.5257 29.7498C39.5965 29.7498 39.7781 29.7599 39.9023 29.9921ZM8.64054 54.1893C8.04873 54.3611 7.27919 55.1815 7.10495 55.8267C6.63206 57.5776 7.80415 59.7744 9.67807 60.6493L10.4291 61H35.5257H60.6224L61.3734 60.6493C62.3531 60.1919 63.2067 59.341 63.6466 58.3835C63.9325 57.7609 63.9985 57.4414 64 56.6697C64.0017 55.8485 63.9569 55.653 63.6661 55.2134C63.4815 54.9342 63.1154 54.5719 62.8525 54.4084L62.3747 54.1112L35.7135 54.0906C19.1207 54.0777 8.89676 54.1151 8.64054 54.1893ZM30.0509 55.6295C30.0992 56.0583 30.2175 56.3098 30.5077 56.6002L30.8992 56.992H35.5257H40.1523L40.5438 56.6002C40.8343 56.3093 40.9522 56.0585 41.0008 55.6273L41.0663 55.0464L51.6242 55.0798L62.1822 55.1132L62.5694 55.5006C63.3846 56.3165 63.1353 57.8755 62.0095 59.0021C60.853 60.1593 63.321 60.0606 35.5257 60.0606C7.73042 60.0606 10.1984 60.1593 9.04196 59.0021C8.28931 58.2489 7.90917 57.274 8.02658 56.3981C8.09492 55.8875 8.4877 55.3519 8.92705 55.1701C9.06474 55.1131 13.8593 55.0628 19.5815 55.0585L29.9857 55.0506L30.0509 55.6295ZM40.0319 55.4013C40.0319 55.5942 39.9643 55.8196 39.8816 55.9023C39.6665 56.1176 31.385 56.1176 31.1698 55.9023C31.0872 55.8196 31.0196 55.5942 31.0196 55.4013V55.0506H35.5257H40.0319V55.4013Z"/>
</mask>
<path fill-rule="evenodd" clip-rule="evenodd" d="M17.9393 12.083C17.8016 12.1404 17.5482 12.3389 17.376 12.5242L17.0631 12.8611V27.0019V41.1429L17.472 41.5524L17.881 41.9618L20.3197 42.0005L22.7584 42.0393V41.5308V41.0224H20.5303C18.9643 41.0224 18.2576 40.9777 18.1521 40.8721C18.0376 40.7575 18.0019 38.1389 18.0019 29.85V18.9782H35.5257H53.0496V29.85C53.0496 38.1389 53.0139 40.7575 52.8994 40.8721C52.7938 40.9777 52.0871 41.0224 50.5211 41.0224H48.2931V41.5308V42.0393L50.7318 42.0005L53.1705 41.9618L53.5794 41.5524L53.9883 41.1429V26.9943V12.8457L53.5792 12.4362L53.17 12.0268L35.6798 12.0027C26.0602 11.9895 18.077 12.0257 17.9393 12.083ZM52.8994 13.1165C53.0055 13.2227 53.0496 13.957 53.0496 15.6215V17.9762H35.5257H18.0019V15.6215C18.0019 13.957 18.046 13.2227 18.1521 13.1165C18.3704 12.898 52.6811 12.898 52.8994 13.1165ZM20.0046 15.4712V15.9722H27.2645H34.5244V15.4712V14.9702H27.2645H20.0046V15.4712ZM44.6682 15.1521C44.3356 15.553 44.824 16.1688 45.2577 15.8956C45.6911 15.6224 45.5367 14.9702 45.0387 14.9702C44.9179 14.9702 44.7511 15.052 44.6682 15.1521ZM47.6722 15.1521C47.3397 15.553 47.8281 16.1688 48.2618 15.8956C48.6951 15.6224 48.5408 14.9702 48.0427 14.9702C47.922 14.9702 47.7552 15.052 47.6722 15.1521ZM50.6763 15.1521C50.3438 15.553 50.8322 16.1688 51.2659 15.8956C51.6992 15.6224 51.5449 14.9702 51.0468 14.9702C50.926 14.9702 50.7593 15.052 50.6763 15.1521ZM31.5829 21.4695C30.5402 21.9511 30.1434 22.725 30.1434 24.2777C30.1434 25.5507 30.4438 26.2318 31.2587 26.8064L31.7915 27.1822L35.2544 27.221C39.1822 27.2652 39.5663 27.2096 40.2822 26.4933C40.8793 25.8959 41.0823 25.158 41.0072 23.8589C40.9576 23.0017 40.8945 22.7745 40.5842 22.3336C40.3837 22.0488 39.9714 21.6844 39.668 21.5242C39.128 21.2389 39.042 21.2328 35.6 21.2355C32.449 21.238 32.0315 21.2623 31.5829 21.4695ZM13.3224 22.1895C12.8936 22.3213 12.5136 22.5751 12.0498 23.0391C10.9186 24.1709 10.9924 23.0733 10.9924 38.7907V52.5455H11.4909H11.9895L12.0229 38.6022L12.0563 24.6587L12.3921 24.1511C12.8972 23.3873 13.481 23.0828 14.5752 23.0126L15.4985 22.9533V22.4687V21.9843L14.7162 21.993C14.286 21.9978 13.6587 22.0862 13.3224 22.1895ZM55.553 22.4687V22.9533L56.4881 23.0133C57.5806 23.0836 58.2172 23.4251 58.6981 24.1991L58.9951 24.6772L59.0286 38.6114L59.062 52.5455H59.5605H60.0591V38.7907C60.0591 23.0756 60.1324 24.1706 59.0033 23.0408C58.2474 22.2844 57.4743 21.9843 56.2812 21.9843H55.553V22.4687ZM39.5602 22.7068C39.9613 23.1084 39.9693 23.1382 39.9693 24.2388C39.9693 25.3394 39.9613 25.3692 39.5602 25.7707L39.1513 26.1802L35.7736 26.2172C32.0476 26.2581 31.7794 26.2146 31.3583 25.5013C31.0804 25.0305 31.0658 23.5026 31.3342 22.9833C31.7069 22.2618 31.8649 22.2358 35.6799 22.2681L39.1513 22.2974L39.5602 22.7068ZM13.9339 24.1078C13.7962 24.1648 13.5427 24.363 13.3706 24.5483L13.0577 24.8852V38.5251V52.165L13.4669 52.5745L13.876 52.9839H35.5257H57.1754L57.5846 52.5745L57.9938 52.165V38.5174V24.8698L57.5907 24.4666C57.236 24.1117 57.0897 24.057 56.3703 24.0112L55.553 23.9591V24.4748V24.9903H56.1538C56.4842 24.9903 56.8222 25.0579 56.9048 25.1406C57.1227 25.3587 57.1227 51.6762 56.9048 51.8942C56.6864 52.1128 14.3651 52.1128 14.1466 51.8942C13.9287 51.6762 13.9287 25.3587 14.1466 25.1406C14.2293 25.0579 14.5672 24.9903 14.8977 24.9903H15.4985V24.4893V23.9883L14.8413 23.9962C14.4799 24.0006 14.0715 24.0508 13.9339 24.1078ZM30.6574 29.069C30.4476 29.2457 30.2183 29.5979 30.1478 29.8518C30.0773 30.1057 30.0194 31.5675 30.019 33.1003L30.0182 35.8871H26.7576C23.1727 35.8871 22.9372 35.9292 22.5727 36.6345C22.4683 36.8367 22.3829 37.2149 22.3829 37.4753C22.3829 37.933 22.589 38.1549 28.6404 44.2137L34.8977 50.4789H35.5257H36.1537L42.4111 44.2137C48.4624 38.1549 48.6686 37.933 48.6686 37.4753C48.6686 37.2149 48.5831 36.8367 48.4787 36.6345C48.1142 35.9292 47.8788 35.8871 44.2939 35.8871H41.0332L41.0325 33.1003C41.0321 31.5675 40.9741 30.1057 40.9037 29.8518C40.8332 29.5979 40.6039 29.2457 40.3941 29.069L40.0127 28.7478H35.5257H31.0387L30.6574 29.069ZM39.9023 29.9921C39.9819 30.1409 40.0319 31.4639 40.0319 33.4212C40.0319 35.9245 40.0677 36.6378 40.1988 36.7466C40.3102 36.8392 41.5699 36.8963 43.9852 36.9185L47.6047 36.9518L47.6472 37.2531C47.6829 37.5055 46.7154 38.5296 41.7021 43.547C38.4089 46.8429 35.6295 49.5395 35.5257 49.5395C35.422 49.5395 32.6426 46.8429 29.3493 43.547C24.336 38.5296 23.3686 37.5055 23.4042 37.2531L23.4468 36.9518L27.0662 36.9185C29.4815 36.8963 30.7412 36.8392 30.8526 36.7466C30.9838 36.6378 31.0196 35.9245 31.0196 33.4212C31.0196 31.4639 31.0695 30.1409 31.1491 29.9921C31.2733 29.7599 31.4549 29.7498 35.5257 29.7498C39.5965 29.7498 39.7781 29.7599 39.9023 29.9921ZM8.64054 54.1893C8.04873 54.3611 7.27919 55.1815 7.10495 55.8267C6.63206 57.5776 7.80415 59.7744 9.67807 60.6493L10.4291 61H35.5257H60.6224L61.3734 60.6493C62.3531 60.1919 63.2067 59.341 63.6466 58.3835C63.9325 57.7609 63.9985 57.4414 64 56.6697C64.0017 55.8485 63.9569 55.653 63.6661 55.2134C63.4815 54.9342 63.1154 54.5719 62.8525 54.4084L62.3747 54.1112L35.7135 54.0906C19.1207 54.0777 8.89676 54.1151 8.64054 54.1893ZM30.0509 55.6295C30.0992 56.0583 30.2175 56.3098 30.5077 56.6002L30.8992 56.992H35.5257H40.1523L40.5438 56.6002C40.8343 56.3093 40.9522 56.0585 41.0008 55.6273L41.0663 55.0464L51.6242 55.0798L62.1822 55.1132L62.5694 55.5006C63.3846 56.3165 63.1353 57.8755 62.0095 59.0021C60.853 60.1593 63.321 60.0606 35.5257 60.0606C7.73042 60.0606 10.1984 60.1593 9.04196 59.0021C8.28931 58.2489 7.90917 57.274 8.02658 56.3981C8.09492 55.8875 8.4877 55.3519 8.92705 55.1701C9.06474 55.1131 13.8593 55.0628 19.5815 55.0585L29.9857 55.0506L30.0509 55.6295ZM40.0319 55.4013C40.0319 55.5942 39.9643 55.8196 39.8816 55.9023C39.6665 56.1176 31.385 56.1176 31.1698 55.9023C31.0872 55.8196 31.0196 55.5942 31.0196 55.4013V55.0506H35.5257H40.0319V55.4013Z" fill="#007BFF" stroke="#007BFF" stroke-width="5" mask="url(#path-1-inside-1_1057_9917)"/>
</svg>
