<svg width="187" height="33" viewBox="0 0 187 33" fill="none" xmlns="http://www.w3.org/2000/svg">
<path fill-rule="evenodd" clip-rule="evenodd" d="M12.8989 2.6598C12.8015 2.80085 12.7887 3.42281 12.7895 7.96147C12.7901 10.7895 12.7901 13.1438 12.7895 13.1932C12.7888 13.2643 11.6882 13.2831 7.52539 13.2831C3.08945 13.2831 2.24057 13.2991 2.12469 13.3852C1.98998 13.4852 1.98771 13.6236 2.01158 20.2324L2.03594 26.9775L3.76473 28.7388L5.49359 30.5H11.9211C15.4563 30.5 18.4045 30.4768 18.4726 30.4483C18.5892 30.3998 18.5966 30.0603 18.5966 24.7513V19.1059H24.2133C28.4874 19.1059 29.8503 19.0853 29.915 19.0196C29.9801 18.9536 30 17.0282 30 10.7911C30 2.81465 29.9972 2.6473 29.863 2.5744C29.7708 2.5243 26.9938 2.5 21.3675 2.5H13.0091L12.8989 2.6598ZM29.3625 4.58472V5.95058H21.4297H13.4969V4.58472V3.21887H21.4297H29.3625V4.58472ZM29.3625 12.5282V18.4589H23.9796H18.5966V15.9454C18.5966 13.5339 18.591 13.4288 18.4596 13.3575C18.3728 13.3104 17.4375 13.2831 15.9097 13.2831H13.4969V9.94031V6.59756H21.4297H29.3625V12.5282ZM15.733 8.4094C15.6398 8.54433 15.6378 8.58955 15.7196 8.71492C15.8024 8.84166 15.9027 8.86495 16.4447 8.88314C16.7906 8.89478 17.1434 8.88659 17.2284 8.86502C17.4185 8.81671 17.4974 8.59372 17.3939 8.39747C17.3238 8.26448 17.2487 8.25096 16.5795 8.25096C15.8998 8.25096 15.8337 8.26333 15.733 8.4094ZM19.7171 8.43039C19.6505 8.57862 19.6589 8.63484 19.765 8.75388C19.8903 8.89435 19.981 8.89795 23.4223 8.89795H26.9511L27.064 8.72304C27.1518 8.58703 27.1595 8.51515 27.0986 8.39955C27.0209 8.25233 26.9868 8.25096 23.4089 8.25096H19.7976L19.7171 8.43039ZM15.7651 11.1966C15.6601 11.3031 15.64 11.3796 15.6845 11.5021C15.7406 11.6564 15.7869 11.6667 16.5048 11.6861C17.2918 11.7073 17.4633 11.659 17.4633 11.4164C17.4633 11.1441 17.2384 11.0546 16.5546 11.0546C16.0021 11.0546 15.8842 11.0758 15.7651 11.1966ZM19.765 11.1986C19.6589 11.3177 19.6505 11.3739 19.7171 11.5221L19.7976 11.7015H23.4129H27.0282L27.1088 11.5221C27.1753 11.3739 27.167 11.3177 27.0609 11.1986C26.9356 11.0582 26.8449 11.0546 23.4129 11.0546C19.981 11.0546 19.8903 11.0582 19.765 11.1986ZM21.417 14.1095C21.3504 14.2577 21.3587 14.3139 21.4648 14.433C21.589 14.5721 21.6815 14.577 24.2077 14.577C25.7653 14.577 26.874 14.5488 26.9507 14.5071C27.1245 14.4128 27.1818 14.2365 27.0933 14.0686C27.0231 13.9354 26.9131 13.93 24.2588 13.93H21.4975L21.417 14.1095ZM17.8883 15.3678V16.7336H10.2742H2.66009V15.3678V14.0019H10.2742H17.8883V15.3678ZM17.8883 23.6348V29.8171H11.9741H6.05987V28.2084C6.05987 26.8978 6.04103 26.5839 5.95816 26.5141C5.88542 26.4528 5.40067 26.4304 4.25827 26.4356L2.66009 26.4429V21.9477V17.4525H10.2742H17.8883V23.6348ZM4.97973 19.6868C4.83744 19.7709 4.81555 20.0427 4.94078 20.1698C4.99567 20.2255 5.2792 20.2561 5.74114 20.2561C6.4932 20.2561 6.6265 20.2074 6.6265 19.9326C6.6265 19.8496 6.58825 19.7428 6.54151 19.6954C6.4359 19.5882 5.15836 19.5811 4.97973 19.6868ZM8.93346 19.722C8.80094 19.8566 8.78954 20.0504 8.90719 20.1698C8.971 20.2346 9.87719 20.2561 12.5498 20.2561C15.6896 20.2561 16.1205 20.2428 16.2188 20.1432C16.3647 19.995 16.3594 19.8739 16.2005 19.7281C16.0836 19.6208 15.7275 19.6091 12.5579 19.6091C9.45859 19.6091 9.0317 19.6224 8.93346 19.722ZM4.94078 21.9958C4.81066 22.1278 4.83963 22.3989 4.99276 22.4821C5.1874 22.5878 6.43512 22.5782 6.54151 22.4702C6.58825 22.4228 6.6265 22.316 6.6265 22.233C6.6265 21.9582 6.4932 21.9095 5.74114 21.9095C5.2792 21.9095 4.99567 21.9401 4.94078 21.9958ZM8.90719 21.9958C8.78954 22.1152 8.80094 22.309 8.93346 22.4435C9.0317 22.5432 9.46036 22.5565 12.5772 22.5565H16.1096L16.2198 22.3967C16.3571 22.1977 16.357 22.1628 16.2188 22.0224C16.1205 21.9228 15.6896 21.9095 12.5498 21.9095C9.87719 21.9095 8.971 21.931 8.90719 21.9958ZM4.97973 24.7907C4.83744 24.8748 4.81555 25.1467 4.94078 25.2738C4.99567 25.3295 5.2792 25.3601 5.74114 25.3601C6.20309 25.3601 6.48661 25.3295 6.54151 25.2738C6.67162 25.1418 6.64265 24.8707 6.48952 24.7875C6.31365 24.692 5.14257 24.6945 4.97973 24.7907ZM8.93346 24.826C8.80094 24.9606 8.78954 25.1544 8.90719 25.2738C8.97107 25.3387 9.88562 25.3601 12.5878 25.3601C16.1498 25.3601 16.1841 25.3587 16.2618 25.2115C16.3227 25.0959 16.315 25.024 16.2272 24.888L16.1143 24.7131H12.5795C9.46057 24.7131 9.0317 24.7264 8.93346 24.826ZM5.42241 28.2415V29.3976L4.28915 28.3008C3.66586 27.6975 3.15589 27.1772 3.15589 27.1446C3.15589 27.112 3.66586 27.0854 4.28915 27.0854H5.42241V28.2415Z" fill="#007BFF" stroke="#007BFF" stroke-width="0.75"/>
<path d="M55.752 22.3135V24H47.4697V22.3135H55.752ZM47.8887 8.35938V24H45.8154V8.35938H47.8887ZM54.6562 15.084V16.7705H47.4697V15.084H54.6562ZM55.6445 8.35938V10.0566H47.4697V8.35938H55.6445ZM59.9951 14.6865V24H57.9971V12.377H59.8877L59.9951 14.6865ZM59.5869 17.748L58.6631 17.7158C58.6702 16.9209 58.7741 16.1868 58.9746 15.5137C59.1751 14.8333 59.4723 14.2425 59.8662 13.7412C60.2601 13.2399 60.7507 12.8532 61.3379 12.5811C61.9251 12.3018 62.6055 12.1621 63.3789 12.1621C63.9232 12.1621 64.4245 12.2409 64.8828 12.3984C65.3411 12.5488 65.7386 12.7887 66.0752 13.1182C66.4118 13.4476 66.6732 13.8701 66.8594 14.3857C67.0456 14.9014 67.1387 15.5244 67.1387 16.2549V24H65.1514V16.3516C65.1514 15.7428 65.0475 15.2559 64.8398 14.8906C64.6393 14.5254 64.3529 14.2604 63.9805 14.0957C63.6081 13.9238 63.1712 13.8379 62.6699 13.8379C62.0827 13.8379 61.5921 13.9417 61.1982 14.1494C60.8044 14.3571 60.4893 14.6436 60.2529 15.0088C60.0166 15.374 59.8447 15.793 59.7373 16.2656C59.637 16.7311 59.5869 17.2253 59.5869 17.748ZM67.1172 16.6523L65.7852 17.0605C65.7923 16.4232 65.8962 15.8109 66.0967 15.2236C66.3044 14.6364 66.6016 14.1136 66.9883 13.6553C67.3822 13.1969 67.8656 12.8353 68.4385 12.5703C69.0114 12.2982 69.6667 12.1621 70.4043 12.1621C71.0273 12.1621 71.5788 12.2445 72.0586 12.4092C72.5456 12.5739 72.9538 12.8281 73.2832 13.1719C73.6198 13.5085 73.874 13.9417 74.0459 14.4717C74.2178 15.0016 74.3037 15.6318 74.3037 16.3623V24H72.3057V16.3408C72.3057 15.6891 72.2018 15.1842 71.9941 14.8262C71.7936 14.4609 71.5072 14.2067 71.1348 14.0635C70.7695 13.9131 70.3327 13.8379 69.8242 13.8379C69.3874 13.8379 69.0007 13.9131 68.6641 14.0635C68.3275 14.2139 68.0446 14.4215 67.8154 14.6865C67.5863 14.9443 67.4108 15.2415 67.2891 15.5781C67.1745 15.9147 67.1172 16.2728 67.1172 16.6523ZM84.165 22.0127V16.0293C84.165 15.571 84.0719 15.1735 83.8857 14.8369C83.7067 14.4932 83.4346 14.2282 83.0693 14.042C82.7041 13.8558 82.2529 13.7627 81.7158 13.7627C81.2145 13.7627 80.7741 13.8486 80.3945 14.0205C80.0221 14.1924 79.7285 14.418 79.5137 14.6973C79.306 14.9766 79.2021 15.2773 79.2021 15.5996H77.2148C77.2148 15.1842 77.3223 14.7725 77.5371 14.3643C77.752 13.9561 78.0599 13.5872 78.4609 13.2578C78.8691 12.9212 79.3561 12.6562 79.9219 12.4629C80.4948 12.2624 81.1322 12.1621 81.834 12.1621C82.679 12.1621 83.4238 12.3053 84.0684 12.5918C84.7201 12.8783 85.2285 13.3115 85.5938 13.8916C85.9661 14.4645 86.1523 15.1842 86.1523 16.0508V21.4648C86.1523 21.8516 86.1846 22.2633 86.249 22.7002C86.3206 23.137 86.4245 23.513 86.5605 23.8281V24H84.4873C84.387 23.7708 84.3083 23.4665 84.251 23.0869C84.1937 22.7002 84.165 22.3421 84.165 22.0127ZM84.5088 16.9531L84.5303 18.3496H82.5215C81.9557 18.3496 81.4508 18.3962 81.0068 18.4893C80.5628 18.5752 80.1904 18.7077 79.8896 18.8867C79.5889 19.0658 79.3597 19.2913 79.2021 19.5635C79.0446 19.8285 78.9658 20.14 78.9658 20.498C78.9658 20.8633 79.0482 21.1963 79.2129 21.4971C79.3776 21.7979 79.6247 22.0378 79.9541 22.2168C80.2907 22.3887 80.7025 22.4746 81.1895 22.4746C81.7982 22.4746 82.3353 22.3457 82.8008 22.0879C83.2663 21.8301 83.6351 21.515 83.9072 21.1426C84.1865 20.7702 84.3369 20.4085 84.3584 20.0576L85.207 21.0137C85.1569 21.3145 85.0208 21.6475 84.7988 22.0127C84.5768 22.3779 84.2796 22.7288 83.9072 23.0654C83.542 23.3949 83.1051 23.6706 82.5967 23.8926C82.0954 24.1074 81.5296 24.2148 80.8994 24.2148C80.1117 24.2148 79.4206 24.0609 78.8262 23.7529C78.2389 23.445 77.7806 23.0332 77.4512 22.5176C77.1289 21.9948 76.9678 21.4111 76.9678 20.7666C76.9678 20.1436 77.0895 19.5957 77.333 19.123C77.5765 18.6432 77.9274 18.2458 78.3857 17.9307C78.8441 17.6084 79.3955 17.3649 80.04 17.2002C80.6846 17.0355 81.4043 16.9531 82.1992 16.9531H84.5088ZM91.4375 12.377V24H89.4395V12.377H91.4375ZM89.2891 9.29395C89.2891 8.97168 89.3857 8.69954 89.5791 8.47754C89.7796 8.25553 90.0732 8.14453 90.46 8.14453C90.8395 8.14453 91.1296 8.25553 91.3301 8.47754C91.5378 8.69954 91.6416 8.97168 91.6416 9.29395C91.6416 9.60189 91.5378 9.86686 91.3301 10.0889C91.1296 10.3037 90.8395 10.4111 90.46 10.4111C90.0732 10.4111 89.7796 10.3037 89.5791 10.0889C89.3857 9.86686 89.2891 9.60189 89.2891 9.29395ZM96.7871 7.5V24H94.7891V7.5H96.7871ZM114.071 20.0469C114.071 19.6816 114.014 19.3594 113.899 19.0801C113.792 18.7936 113.599 18.5358 113.319 18.3066C113.047 18.0775 112.668 17.859 112.181 17.6514C111.701 17.4437 111.092 17.2324 110.354 17.0176C109.581 16.7884 108.883 16.5342 108.26 16.2549C107.637 15.9684 107.103 15.6426 106.659 15.2773C106.215 14.9121 105.875 14.4932 105.639 14.0205C105.402 13.5479 105.284 13.0072 105.284 12.3984C105.284 11.7897 105.41 11.2275 105.66 10.7119C105.911 10.1963 106.269 9.7487 106.734 9.36914C107.207 8.98242 107.769 8.68164 108.421 8.4668C109.073 8.25195 109.799 8.14453 110.602 8.14453C111.776 8.14453 112.771 8.37012 113.588 8.82129C114.411 9.2653 115.038 9.84896 115.468 10.5723C115.897 11.2884 116.112 12.0547 116.112 12.8711H114.05C114.05 12.2839 113.924 11.7646 113.674 11.3135C113.423 10.8551 113.044 10.4971 112.535 10.2393C112.027 9.97428 111.382 9.8418 110.602 9.8418C109.864 9.8418 109.255 9.9528 108.775 10.1748C108.296 10.3968 107.938 10.6976 107.701 11.0771C107.472 11.4567 107.357 11.89 107.357 12.377C107.357 12.7064 107.425 13.0072 107.562 13.2793C107.705 13.5443 107.923 13.7913 108.217 14.0205C108.518 14.2497 108.897 14.4609 109.355 14.6543C109.821 14.8477 110.376 15.0339 111.021 15.2129C111.909 15.4635 112.675 15.7428 113.319 16.0508C113.964 16.3587 114.494 16.7061 114.909 17.0928C115.332 17.4723 115.643 17.9056 115.844 18.3926C116.051 18.8724 116.155 19.4167 116.155 20.0254C116.155 20.6628 116.026 21.2393 115.769 21.7549C115.511 22.2705 115.142 22.7109 114.662 23.0762C114.182 23.4414 113.606 23.7243 112.933 23.9248C112.267 24.1182 111.522 24.2148 110.698 24.2148C109.975 24.2148 109.262 24.1146 108.561 23.9141C107.866 23.7135 107.232 23.4128 106.659 23.0117C106.093 22.6107 105.639 22.1165 105.295 21.5293C104.958 20.9349 104.79 20.2474 104.79 19.4668H106.853C106.853 20.0039 106.956 20.4658 107.164 20.8525C107.372 21.2321 107.655 21.5472 108.013 21.7979C108.378 22.0485 108.79 22.2347 109.248 22.3564C109.714 22.471 110.197 22.5283 110.698 22.5283C111.422 22.5283 112.034 22.4281 112.535 22.2275C113.036 22.027 113.416 21.7406 113.674 21.3682C113.939 20.9958 114.071 20.5553 114.071 20.0469ZM125.608 21.3145V12.377H127.606V24H125.705L125.608 21.3145ZM125.984 18.8652L126.812 18.8438C126.812 19.6172 126.729 20.3333 126.564 20.9922C126.407 21.6439 126.149 22.2096 125.791 22.6895C125.433 23.1693 124.964 23.5452 124.384 23.8174C123.804 24.0824 123.098 24.2148 122.268 24.2148C121.702 24.2148 121.183 24.1325 120.71 23.9678C120.244 23.8031 119.843 23.5488 119.507 23.2051C119.17 22.8613 118.909 22.4137 118.723 21.8623C118.544 21.3109 118.454 20.6484 118.454 19.875V12.377H120.441V19.8965C120.441 20.4193 120.499 20.8525 120.613 21.1963C120.735 21.5329 120.896 21.8014 121.097 22.002C121.304 22.1953 121.534 22.3314 121.784 22.4102C122.042 22.4889 122.307 22.5283 122.579 22.5283C123.424 22.5283 124.094 22.3672 124.588 22.0449C125.082 21.7155 125.437 21.2751 125.651 20.7236C125.873 20.165 125.984 19.5456 125.984 18.8652ZM132.623 14.6113V28.4688H130.625V12.377H132.451L132.623 14.6113ZM140.454 18.0918V18.3174C140.454 19.1624 140.354 19.9466 140.153 20.6699C139.953 21.3861 139.659 22.0091 139.272 22.5391C138.893 23.069 138.424 23.4808 137.865 23.7744C137.307 24.068 136.666 24.2148 135.942 24.2148C135.205 24.2148 134.553 24.0931 133.987 23.8496C133.422 23.6061 132.942 23.2516 132.548 22.7861C132.154 22.3206 131.839 21.762 131.603 21.1104C131.373 20.4587 131.216 19.7246 131.13 18.9082V17.7051C131.216 16.8457 131.377 16.0758 131.613 15.3955C131.85 14.7152 132.161 14.1351 132.548 13.6553C132.942 13.1683 133.418 12.7995 133.977 12.5488C134.535 12.291 135.18 12.1621 135.91 12.1621C136.641 12.1621 137.289 12.3053 137.854 12.5918C138.42 12.8711 138.896 13.2721 139.283 13.7949C139.67 14.3177 139.96 14.9443 140.153 15.6748C140.354 16.3981 140.454 17.2038 140.454 18.0918ZM138.456 18.3174V18.0918C138.456 17.5117 138.395 16.9674 138.273 16.459C138.152 15.9434 137.962 15.4922 137.704 15.1055C137.453 14.7116 137.131 14.4036 136.737 14.1816C136.343 13.9525 135.874 13.8379 135.33 13.8379C134.829 13.8379 134.392 13.9238 134.02 14.0957C133.654 14.2676 133.343 14.5003 133.085 14.7939C132.827 15.0804 132.616 15.4098 132.451 15.7822C132.294 16.1475 132.175 16.527 132.097 16.9209V19.7031C132.24 20.2044 132.44 20.6771 132.698 21.1211C132.956 21.5579 133.3 21.9124 133.729 22.1846C134.159 22.4495 134.7 22.582 135.352 22.582C135.889 22.582 136.351 22.471 136.737 22.249C137.131 22.0199 137.453 21.7083 137.704 21.3145C137.962 20.9206 138.152 20.4694 138.273 19.9609C138.395 19.4453 138.456 18.8975 138.456 18.3174ZM144.977 14.6113V28.4688H142.979V12.377H144.805L144.977 14.6113ZM152.808 18.0918V18.3174C152.808 19.1624 152.707 19.9466 152.507 20.6699C152.306 21.3861 152.013 22.0091 151.626 22.5391C151.246 23.069 150.777 23.4808 150.219 23.7744C149.66 24.068 149.019 24.2148 148.296 24.2148C147.558 24.2148 146.907 24.0931 146.341 23.8496C145.775 23.6061 145.295 23.2516 144.901 22.7861C144.507 22.3206 144.192 21.762 143.956 21.1104C143.727 20.4587 143.569 19.7246 143.483 18.9082V17.7051C143.569 16.8457 143.73 16.0758 143.967 15.3955C144.203 14.7152 144.515 14.1351 144.901 13.6553C145.295 13.1683 145.771 12.7995 146.33 12.5488C146.889 12.291 147.533 12.1621 148.264 12.1621C148.994 12.1621 149.642 12.3053 150.208 12.5918C150.774 12.8711 151.25 13.2721 151.637 13.7949C152.023 14.3177 152.313 14.9443 152.507 15.6748C152.707 16.3981 152.808 17.2038 152.808 18.0918ZM150.81 18.3174V18.0918C150.81 17.5117 150.749 16.9674 150.627 16.459C150.505 15.9434 150.315 15.4922 150.058 15.1055C149.807 14.7116 149.485 14.4036 149.091 14.1816C148.697 13.9525 148.228 13.8379 147.684 13.8379C147.182 13.8379 146.745 13.9238 146.373 14.0957C146.008 14.2676 145.696 14.5003 145.438 14.7939C145.181 15.0804 144.969 15.4098 144.805 15.7822C144.647 16.1475 144.529 16.527 144.45 16.9209V19.7031C144.593 20.2044 144.794 20.6771 145.052 21.1211C145.31 21.5579 145.653 21.9124 146.083 22.1846C146.513 22.4495 147.053 22.582 147.705 22.582C148.242 22.582 148.704 22.471 149.091 22.249C149.485 22.0199 149.807 21.7083 150.058 21.3145C150.315 20.9206 150.505 20.4694 150.627 19.9609C150.749 19.4453 150.81 18.8975 150.81 18.3174ZM154.816 18.3174V18.0703C154.816 17.2324 154.938 16.4554 155.182 15.7393C155.425 15.016 155.776 14.3893 156.234 13.8594C156.693 13.3223 157.248 12.9069 157.899 12.6133C158.551 12.3125 159.282 12.1621 160.091 12.1621C160.907 12.1621 161.641 12.3125 162.293 12.6133C162.952 12.9069 163.51 13.3223 163.969 13.8594C164.434 14.3893 164.789 15.016 165.032 15.7393C165.276 16.4554 165.397 17.2324 165.397 18.0703V18.3174C165.397 19.1553 165.276 19.9323 165.032 20.6484C164.789 21.3646 164.434 21.9912 163.969 22.5283C163.51 23.0583 162.955 23.4736 162.304 23.7744C161.659 24.068 160.929 24.2148 160.112 24.2148C159.296 24.2148 158.562 24.068 157.91 23.7744C157.258 23.4736 156.7 23.0583 156.234 22.5283C155.776 21.9912 155.425 21.3646 155.182 20.6484C154.938 19.9323 154.816 19.1553 154.816 18.3174ZM156.804 18.0703V18.3174C156.804 18.8975 156.872 19.4453 157.008 19.9609C157.144 20.4694 157.348 20.9206 157.62 21.3145C157.899 21.7083 158.247 22.0199 158.662 22.249C159.077 22.471 159.561 22.582 160.112 22.582C160.657 22.582 161.133 22.471 161.541 22.249C161.956 22.0199 162.3 21.7083 162.572 21.3145C162.844 20.9206 163.049 20.4694 163.185 19.9609C163.328 19.4453 163.399 18.8975 163.399 18.3174V18.0703C163.399 17.4974 163.328 16.9567 163.185 16.4482C163.049 15.9326 162.841 15.4779 162.562 15.084C162.289 14.6829 161.946 14.3678 161.53 14.1387C161.122 13.9095 160.642 13.7949 160.091 13.7949C159.547 13.7949 159.067 13.9095 158.651 14.1387C158.243 14.3678 157.899 14.6829 157.62 15.084C157.348 15.4779 157.144 15.9326 157.008 16.4482C156.872 16.9567 156.804 17.4974 156.804 18.0703ZM169.877 14.2031V24H167.89V12.377H169.823L169.877 14.2031ZM173.508 12.3125L173.497 14.1602C173.332 14.1243 173.175 14.1029 173.024 14.0957C172.881 14.0814 172.716 14.0742 172.53 14.0742C172.072 14.0742 171.667 14.1458 171.316 14.2891C170.965 14.4323 170.668 14.6328 170.425 14.8906C170.181 15.1484 169.988 15.4564 169.845 15.8145C169.709 16.1654 169.619 16.5521 169.576 16.9746L169.018 17.2969C169.018 16.5951 169.086 15.9362 169.222 15.3203C169.365 14.7044 169.583 14.1602 169.877 13.6875C170.171 13.2077 170.543 12.8353 170.994 12.5703C171.452 12.2982 171.997 12.1621 172.627 12.1621C172.77 12.1621 172.935 12.18 173.121 12.2158C173.307 12.2445 173.436 12.2767 173.508 12.3125ZM180.748 12.377V13.9023H174.464V12.377H180.748ZM176.591 9.55176H178.578V21.1211C178.578 21.515 178.639 21.8122 178.761 22.0127C178.882 22.2132 179.04 22.3457 179.233 22.4102C179.427 22.4746 179.634 22.5068 179.856 22.5068C180.021 22.5068 180.193 22.4925 180.372 22.4639C180.558 22.4281 180.698 22.3994 180.791 22.3779L180.802 24C180.644 24.0501 180.437 24.0967 180.179 24.1396C179.928 24.1898 179.624 24.2148 179.266 24.2148C178.779 24.2148 178.331 24.1182 177.923 23.9248C177.515 23.7314 177.189 23.4092 176.945 22.958C176.709 22.4997 176.591 21.8838 176.591 21.1104V9.55176ZM182.993 22.9473C182.993 22.6107 183.097 22.3278 183.305 22.0986C183.52 21.8623 183.827 21.7441 184.229 21.7441C184.63 21.7441 184.934 21.8623 185.142 22.0986C185.356 22.3278 185.464 22.6107 185.464 22.9473C185.464 23.2767 185.356 23.556 185.142 23.7852C184.934 24.0143 184.63 24.1289 184.229 24.1289C183.827 24.1289 183.52 24.0143 183.305 23.7852C183.097 23.556 182.993 23.2767 182.993 22.9473ZM183.004 13.4619C183.004 13.1253 183.108 12.8424 183.315 12.6133C183.53 12.377 183.838 12.2588 184.239 12.2588C184.64 12.2588 184.945 12.377 185.152 12.6133C185.367 12.8424 185.475 13.1253 185.475 13.4619C185.475 13.7913 185.367 14.0706 185.152 14.2998C184.945 14.529 184.64 14.6436 184.239 14.6436C183.838 14.6436 183.53 14.529 183.315 14.2998C183.108 14.0706 183.004 13.7913 183.004 13.4619Z" fill="#333333"/>
</svg>
